<mxfile host="65bd71144e" scale="2" border="0">
    <diagram id="e1xf8jnrH3_m2cHPAWJP" name="Page-1">
        <mxGraphModel dx="818" dy="617" grid="1" gridSize="5" guides="1" tooltips="1" connect="1" arrows="1" fold="1" page="1" pageScale="1" pageWidth="827" pageHeight="1169" math="0" shadow="0">
            <root>
                <mxCell id="0"/>
                <mxCell id="1" parent="0"/>
                <mxCell id="40" value="Envia comando" style="edgeStyle=none;html=1;endArrow=classic;endFill=1;" parent="1" source="11" target="30" edge="1">
                    <mxGeometry relative="1" as="geometry">
                        <Array as="points">
                            <mxPoint x="110" y="135"/>
                        </Array>
                    </mxGeometry>
                </mxCell>
                <mxCell id="11" value="" style="html=1;points=[];perimeter=orthogonalPerimeter;" parent="1" vertex="1">
                    <mxGeometry x="70" y="125" width="10" height="460" as="geometry"/>
                </mxCell>
                <mxCell id="32" value="" style="edgeStyle=none;html=1;dashed=1;endArrow=none;endFill=0;" parent="1" source="111" target="11" edge="1">
                    <mxGeometry relative="1" as="geometry">
                        <mxPoint x="75" y="105" as="sourcePoint"/>
                    </mxGeometry>
                </mxCell>
                <mxCell id="57" value="" style="edgeStyle=none;html=1;dashed=1;startArrow=none;startFill=0;endArrow=none;endFill=0;" parent="1" source="79" edge="1">
                    <mxGeometry relative="1" as="geometry">
                        <mxPoint x="499" y="585" as="targetPoint"/>
                    </mxGeometry>
                </mxCell>
                <mxCell id="14" value="Firmware" style="ellipse;shape=umlEntity;whiteSpace=wrap;html=1;" parent="1" vertex="1">
                    <mxGeometry x="469.4" y="45" width="60" height="60" as="geometry"/>
                </mxCell>
                <mxCell id="34" value="" style="edgeStyle=none;html=1;dashed=1;endArrow=none;endFill=0;" parent="1" source="29" target="30" edge="1">
                    <mxGeometry relative="1" as="geometry"/>
                </mxCell>
                <mxCell id="29" value="API Laser" style="ellipse;shape=umlEntity;whiteSpace=wrap;html=1;" parent="1" vertex="1">
                    <mxGeometry x="175" y="45" width="60" height="60" as="geometry"/>
                </mxCell>
                <mxCell id="59" style="edgeStyle=none;html=1;startArrow=none;startFill=0;endArrow=classic;endFill=1;" parent="1" target="60" edge="1">
                    <mxGeometry relative="1" as="geometry">
                        <mxPoint x="269.09999999999997" y="259" as="targetPoint"/>
                        <Array as="points">
                            <mxPoint x="379.09999999999997" y="259"/>
                        </Array>
                        <mxPoint x="209.49999999999983" y="259" as="sourcePoint"/>
                    </mxGeometry>
                </mxCell>
                <mxCell id="62" value="Envia comando" style="edgeLabel;html=1;align=center;verticalAlign=middle;resizable=0;points=[];" parent="59" vertex="1" connectable="0">
                    <mxGeometry x="-0.2837" y="-1" relative="1" as="geometry">
                        <mxPoint x="99" y="-16" as="offset"/>
                    </mxGeometry>
                </mxCell>
                <mxCell id="73" value="Envia comando de seleção de goldbox" style="edgeStyle=none;html=1;startArrow=none;startFill=0;endArrow=classic;endFill=1;" parent="1" target="71" edge="1">
                    <mxGeometry x="-0.0011" relative="1" as="geometry">
                        <Array as="points">
                            <mxPoint x="469.70000000000005" y="398"/>
                        </Array>
                        <mxPoint as="offset"/>
                        <mxPoint x="210.09999999999985" y="398" as="sourcePoint"/>
                    </mxGeometry>
                </mxCell>
                <mxCell id="97" style="edgeStyle=none;html=1;dashed=1;" parent="1" source="30" target="11" edge="1">
                    <mxGeometry relative="1" as="geometry">
                        <Array as="points">
                            <mxPoint x="140" y="575"/>
                        </Array>
                    </mxGeometry>
                </mxCell>
                <mxCell id="30" value="" style="html=1;points=[];perimeter=orthogonalPerimeter;" parent="1" vertex="1">
                    <mxGeometry x="199.60000000000002" y="125" width="10.8" height="450" as="geometry"/>
                </mxCell>
                <mxCell id="63" style="edgeStyle=none;html=1;dashed=1;startArrow=none;startFill=0;endArrow=classic;endFill=1;" parent="1" source="60" edge="1" target="106">
                    <mxGeometry relative="1" as="geometry">
                        <Array as="points">
                            <mxPoint x="360" y="299"/>
                        </Array>
                        <mxPoint x="209.49999999999983" y="299" as="targetPoint"/>
                    </mxGeometry>
                </mxCell>
                <mxCell id="64" value="Confirmação de recebimento" style="edgeLabel;html=1;align=center;verticalAlign=middle;resizable=0;points=[];" parent="63" vertex="1" connectable="0">
                    <mxGeometry x="-0.5883" y="2" relative="1" as="geometry">
                        <mxPoint x="-25" y="-12" as="offset"/>
                    </mxGeometry>
                </mxCell>
                <mxCell id="60" value="" style="html=1;points=[];perimeter=orthogonalPerimeter;" parent="1" vertex="1">
                    <mxGeometry x="493.1" y="244" width="10.8" height="60" as="geometry"/>
                </mxCell>
                <mxCell id="61" value="" style="edgeStyle=none;html=1;dashed=1;startArrow=none;startFill=0;endArrow=none;endFill=0;exitX=0.5;exitY=1;exitDx=0;exitDy=0;" parent="1" source="14" target="60" edge="1">
                    <mxGeometry relative="1" as="geometry">
                        <mxPoint x="499" y="65" as="sourcePoint"/>
                        <mxPoint x="499.4" y="515" as="targetPoint"/>
                    </mxGeometry>
                </mxCell>
                <mxCell id="74" value="Confirmação de recebimento" style="edgeStyle=none;html=1;dashed=1;startArrow=none;startFill=0;endArrow=classic;endFill=1;" parent="1" source="71" edge="1" target="106">
                    <mxGeometry x="0.0011" relative="1" as="geometry">
                        <Array as="points">
                            <mxPoint x="389.7" y="428"/>
                        </Array>
                        <mxPoint as="offset"/>
                        <mxPoint x="210.09999999999985" y="428" as="targetPoint"/>
                    </mxGeometry>
                </mxCell>
                <mxCell id="71" value="" style="html=1;points=[];perimeter=orthogonalPerimeter;" parent="1" vertex="1">
                    <mxGeometry x="493.70000000000005" y="388" width="10.8" height="40" as="geometry"/>
                </mxCell>
                <mxCell id="72" value="" style="edgeStyle=none;html=1;dashed=1;startArrow=none;startFill=0;endArrow=none;endFill=0;" parent="1" source="60" target="71" edge="1">
                    <mxGeometry relative="1" as="geometry">
                        <mxPoint x="499.10000000000014" y="440" as="sourcePoint"/>
                        <mxPoint x="499.10000000000014" y="545" as="targetPoint"/>
                    </mxGeometry>
                </mxCell>
                <mxCell id="75" style="edgeStyle=none;html=1;startArrow=none;startFill=0;endArrow=classic;endFill=1;" parent="1" target="79" edge="1">
                    <mxGeometry relative="1" as="geometry">
                        <mxPoint x="269.7" y="471" as="targetPoint"/>
                        <mxPoint x="210.09999999999985" y="476" as="sourcePoint"/>
                        <Array as="points">
                            <mxPoint x="379.7" y="476"/>
                        </Array>
                    </mxGeometry>
                </mxCell>
                <mxCell id="76" value="Envia comando" style="edgeLabel;html=1;align=center;verticalAlign=middle;resizable=0;points=[];" parent="75" vertex="1" connectable="0">
                    <mxGeometry x="-0.2837" y="-1" relative="1" as="geometry">
                        <mxPoint x="128" y="-11" as="offset"/>
                    </mxGeometry>
                </mxCell>
                <mxCell id="77" style="edgeStyle=none;html=1;dashed=1;startArrow=none;startFill=0;endArrow=classic;endFill=1;" parent="1" source="79" edge="1" target="106">
                    <mxGeometry relative="1" as="geometry">
                        <mxPoint x="210.09999999999985" y="506" as="targetPoint"/>
                        <Array as="points">
                            <mxPoint x="399.7" y="506"/>
                        </Array>
                    </mxGeometry>
                </mxCell>
                <mxCell id="78" value="Confirmação de recebimento" style="edgeLabel;html=1;align=center;verticalAlign=middle;resizable=0;points=[];" parent="77" vertex="1" connectable="0">
                    <mxGeometry x="-0.5883" y="2" relative="1" as="geometry">
                        <mxPoint x="-4" y="-12" as="offset"/>
                    </mxGeometry>
                </mxCell>
                <mxCell id="79" value="" style="html=1;points=[];perimeter=orthogonalPerimeter;" parent="1" vertex="1">
                    <mxGeometry x="493.70000000000005" y="456" width="10.8" height="60" as="geometry"/>
                </mxCell>
                <mxCell id="80" value="" style="edgeStyle=none;html=1;dashed=1;startArrow=none;startFill=0;endArrow=none;endFill=0;" parent="1" source="71" target="79" edge="1">
                    <mxGeometry relative="1" as="geometry">
                        <mxPoint x="498.70000000000005" y="495" as="sourcePoint"/>
                        <mxPoint x="498.70000000000005" y="615" as="targetPoint"/>
                    </mxGeometry>
                </mxCell>
                <mxCell id="100" value="&lt;span style=&quot;color: rgb(240 , 240 , 240) ; font-family: &amp;#34;helvetica&amp;#34; ; font-size: 11px ; font-style: normal ; font-weight: 400 ; letter-spacing: normal ; text-align: center ; text-indent: 0px ; text-transform: none ; word-spacing: 0px ; background-color: rgb(42 , 42 , 42) ; display: inline ; float: none&quot;&gt;Obtem a Mutex&lt;/span&gt;" style="edgeStyle=orthogonalEdgeStyle;html=1;align=left;spacingLeft=2;endArrow=block;rounded=0;" parent="1" target="106" edge="1">
                    <mxGeometry x="-0.9337" y="11" relative="1" as="geometry">
                        <mxPoint x="211.39999999999998" y="146" as="sourcePoint"/>
                        <Array as="points">
                            <mxPoint x="331" y="146"/>
                            <mxPoint x="331" y="155"/>
                        </Array>
                        <mxPoint x="211.39999999999998" y="196" as="targetPoint"/>
                        <mxPoint as="offset"/>
                    </mxGeometry>
                </mxCell>
                <mxCell id="101" value="&lt;span style=&quot;color: rgb(240 , 240 , 240) ; font-family: &amp;#34;helvetica&amp;#34; ; font-size: 11px ; font-style: normal ; font-weight: 400 ; letter-spacing: normal ; text-align: center ; text-indent: 0px ; text-transform: none ; word-spacing: 0px ; background-color: rgb(42 , 42 , 42) ; display: inline ; float: none&quot;&gt;goldbox_correta=verificar_goldbox(): bool&lt;/span&gt;" style="edgeStyle=orthogonalEdgeStyle;html=1;align=left;spacingLeft=2;endArrow=block;rounded=0;" parent="1" source="30" target="108" edge="1">
                    <mxGeometry x="-0.9312" y="10" relative="1" as="geometry">
                        <mxPoint x="210.39999999999998" y="195" as="sourcePoint"/>
                        <Array as="points">
                            <mxPoint x="330" y="185"/>
                            <mxPoint x="330" y="195"/>
                        </Array>
                        <mxPoint x="210.39999999999998" y="215" as="targetPoint"/>
                        <mxPoint as="offset"/>
                    </mxGeometry>
                </mxCell>
                <mxCell id="102" value="&lt;span style=&quot;text-align: center&quot;&gt;seta_goldbox()&lt;/span&gt;" style="edgeStyle=orthogonalEdgeStyle;html=1;align=left;spacingLeft=2;endArrow=block;rounded=0;" parent="1" target="109" edge="1">
                    <mxGeometry x="-0.9312" y="10" relative="1" as="geometry">
                        <mxPoint x="210.4000000000001" y="366" as="sourcePoint"/>
                        <Array as="points">
                            <mxPoint x="330" y="366"/>
                            <mxPoint x="330" y="376"/>
                        </Array>
                        <mxPoint x="210.4000000000001" y="376" as="targetPoint"/>
                        <mxPoint as="offset"/>
                    </mxGeometry>
                </mxCell>
                <mxCell id="103" value="&lt;span style=&quot;color: rgb(240 , 240 , 240) ; font-family: &amp;#34;helvetica&amp;#34; ; font-size: 11px ; font-style: normal ; font-weight: 400 ; letter-spacing: normal ; text-align: center ; text-indent: 0px ; text-transform: none ; word-spacing: 0px ; background-color: rgb(42 , 42 , 42) ; display: inline ; float: none&quot;&gt;Libera a Mutex&lt;/span&gt;" style="edgeStyle=orthogonalEdgeStyle;html=1;align=left;spacingLeft=2;endArrow=block;rounded=0;" parent="1" target="106" edge="1">
                    <mxGeometry x="-0.9337" y="11" relative="1" as="geometry">
                        <mxPoint x="210.4000000000001" y="551" as="sourcePoint"/>
                        <Array as="points">
                            <mxPoint x="331" y="551"/>
                            <mxPoint x="331" y="560"/>
                        </Array>
                        <mxPoint x="215" y="560" as="targetPoint"/>
                        <mxPoint as="offset"/>
                    </mxGeometry>
                </mxCell>
                <mxCell id="106" value="" style="html=1;points=[];perimeter=orthogonalPerimeter;" parent="1" vertex="1">
                    <mxGeometry x="205" y="155" width="10" height="405" as="geometry"/>
                </mxCell>
                <mxCell id="108" value="" style="html=1;points=[];perimeter=orthogonalPerimeter;" parent="1" vertex="1">
                    <mxGeometry x="210" y="195" width="10" height="15" as="geometry"/>
                </mxCell>
                <mxCell id="109" value="" style="html=1;points=[];perimeter=orthogonalPerimeter;" parent="1" vertex="1">
                    <mxGeometry x="210" y="375" width="10" height="15" as="geometry"/>
                </mxCell>
                <mxCell id="111" value="Scripts de teste" style="ellipse;shape=umlEntity;whiteSpace=wrap;html=1;" parent="1" vertex="1">
                    <mxGeometry x="45" y="45" width="60" height="60" as="geometry"/>
                </mxCell>
                <mxCell id="53" value="Verifica se é a goldbox correta" style="shape=umlFrame;tabWidth=110;tabHeight=30;tabPosition=left;html=1;boundedLbl=1;labelInHeader=1;width=186;height=30;" parent="1" vertex="1">
                    <mxGeometry x="125" y="215" width="410" height="310" as="geometry"/>
                </mxCell>
                <mxCell id="54" value="[Se for]" style="text" parent="53" vertex="1">
                    <mxGeometry width="100" height="20" relative="1" as="geometry">
                        <mxPoint x="20" y="40" as="offset"/>
                    </mxGeometry>
                </mxCell>
                <mxCell id="55" value="[Se não]" style="line;strokeWidth=1;dashed=1;labelPosition=center;verticalLabelPosition=bottom;align=left;verticalAlign=top;spacingLeft=20;spacingTop=15;" parent="53" vertex="1">
                    <mxGeometry y="89.73684210526318" width="410" height="12.400000000000002" as="geometry"/>
                </mxCell>
            </root>
        </mxGraphModel>
    </diagram>
</mxfile>